<svg width="64" height="64" xmlns="http://www.w3.org/2000/svg">

 <g>
  <title>Layer 1</title>
  <g stroke="null" id="svg_8">
   <circle fill="#ffffff" stroke="null" id="svg_3" r="1.59519" cy="36.2001" cx="44.77107"/>
   <path fill="#ffffff" stroke="null" id="svg_4" d="m36.79511,37.09182c0.17148,1.54813 0.78324,2.96147 1.70685,4.11559l1.85361,-1.85441l1.261,1.2618l-1.85361,1.85441c1.15492,0.92362 2.56746,1.53537 4.11559,1.70685l0,-2.62409l1.78422,0l0,2.62409c1.54813,-0.17148 2.96067,-0.78324 4.11559,-1.70685l-1.85361,-1.85441l1.261,-1.2618l1.85361,1.85441c0.92362,-1.15492 1.53617,-2.56826 1.70685,-4.11559l-2.62409,0l0,-1.78422l2.62489,0c-0.17148,-1.54813 -0.78324,-2.96147 -1.70685,-4.11559l-1.85361,1.85441l-1.261,-1.261l1.85361,-1.85441c-1.15492,-0.92362 -2.56746,-1.53537 -4.11559,-1.70685l0,2.62409l-1.78422,0l0,-2.62409c-1.54813,0.17148 -2.96067,0.78324 -4.11559,1.70685l1.85361,1.85441l-1.261,1.261l-1.85361,-1.85441c-0.92362,1.15492 -1.53617,2.56746 -1.70685,4.11559l2.62409,0l0,1.78422l-2.62489,0zm7.97595,-4.46015c1.96767,0 3.56844,1.59998 3.56844,3.56844c0,1.96767 -1.60077,3.56844 -3.56844,3.56844s-3.56844,-1.60077 -3.56844,-3.56844s1.60077,-3.56844 3.56844,-3.56844z"/>
   <path fill="#ffffff" stroke="null" id="svg_5" d="m52.74702,19.4506l-8.55262,0l-26.12763,15.67674c-1.17087,0.70188 -2.51003,1.07277 -3.87312,1.07277l-3.71919,0l0,3.19038l24.42875,0c-0.38923,-1.20995 -0.55592,-2.49488 -0.48494,-3.77582c0.29112,-5.27211 4.65317,-9.56556 9.93246,-9.77453c2.84821,-0.10768 5.55206,0.91165 7.60427,2.88331c1.86079,1.78821 2.96386,4.13633 3.15449,6.67906l0.8279,0l0,-12.76153c0,-1.7595 -1.43089,-3.19038 -3.19038,-3.19038z"/>
   <path fill="#ffffff" stroke="null" id="svg_6" d="m41.09415,19.4506l-8.27106,0c-0.90368,0 -1.78502,0.25443 -2.54991,0.73618l-5.16443,3.2518l9.29278,0l0,0.02792l6.69262,-4.01589z"/>
   <path fill="#ffffff" stroke="null" id="svg_7" d="m14.19365,34.60491c1.07436,0 2.13038,-0.29192 3.0532,-0.84545l14.54256,-8.72569l-9.21462,0l-9.86466,6.21088c-1.20198,0.75772 -1.98442,1.98202 -2.18222,3.36027l3.66575,0z"/>
  </g>
  <rect stroke="null" id="svg_10" height="0.94518" width="44.99054" y="45.98865" x="10.73346" fill="#ffffff"/>
 </g>
</svg>